<svg xmlns="http://www.w3.org/2000/svg" xmlns:xlink="http://www.w3.org/1999/xlink" width="500" zoomAndPan="magnify" viewBox="0 0 375 374.999991" height="500" preserveAspectRatio="xMidYMid meet" version="1.2"><defs/><g id="d5c3128c65"><rect x="0" width="375" y="0" height="374.999991" style="fill:#ffffff;fill-opacity:1;stroke:none;"/><rect x="0" width="375" y="0" height="374.999991" style="fill:#1e1e2f;fill-opacity:1;stroke:none;"/><g style="fill:#ffffff;fill-opacity:1;"><g transform="translate(-12.617046, 303.219056)"><path style="stroke:none" d="M 118.75 -115.5625 L 211.984375 0 L 173.703125 0 L 100.671875 -90.390625 L 30.125 5.671875 L 30.125 -230.765625 L 60.265625 -230.765625 L 60.265625 -85.078125 L 166.609375 -230.765625 L 203.125 -230.765625 Z M 118.75 -115.5625 "/></g></g><g style="fill:#ffffff;fill-opacity:1;"><g transform="translate(146.88498, 303.219056)"><path style="stroke:none" d="M 224.03125 -41.828125 C 212.925781 -27.648438 199.457031 -16.78125 183.625 -9.21875 C 167.789062 -1.65625 150.894531 2.125 132.9375 2.125 C 111.894531 2.125 92.515625 -3.191406 74.796875 -13.828125 C 56.835938 -24.222656 42.660156 -38.519531 32.265625 -56.71875 C 21.859375 -74.675781 16.65625 -94.289062 16.65625 -115.5625 C 16.65625 -136.832031 21.859375 -156.566406 32.265625 -174.765625 C 42.660156 -192.960938 56.835938 -207.257812 74.796875 -217.65625 C 92.515625 -228.050781 111.894531 -233.25 132.9375 -233.25 C 149.476562 -233.25 165.3125 -229.941406 180.4375 -223.328125 C 195.5625 -216.472656 208.554688 -206.898438 219.421875 -194.609375 L 197.453125 -175.109375 C 189.179688 -184.085938 179.375 -191.179688 168.03125 -196.390625 C 156.6875 -201.347656 144.988281 -203.828125 132.9375 -203.828125 C 117.332031 -203.828125 102.914062 -199.925781 89.6875 -192.125 C 76.21875 -184.09375 65.582031 -173.34375 57.78125 -159.875 C 49.976562 -146.164062 46.078125 -131.394531 46.078125 -115.5625 C 46.078125 -99.726562 49.976562 -85.078125 57.78125 -71.609375 C 65.582031 -57.898438 76.21875 -47.144531 89.6875 -39.34375 C 102.914062 -31.3125 117.332031 -27.296875 132.9375 -27.296875 C 146.164062 -27.296875 158.804688 -30.25 170.859375 -36.15625 C 182.671875 -41.832031 192.71875 -49.867188 201 -60.265625 Z M 224.03125 -41.828125 "/></g></g></g></svg>